<?xml version="1.0" encoding="utf-8"?>
<!-- Generator: Adobe Illustrator 21.0.2, SVG Export Plug-In . SVG Version: 6.00 Build 0)  -->
<svg version="1.1" id="Capa_1" xmlns="http://www.w3.org/2000/svg" xmlns:xlink="http://www.w3.org/1999/xlink" x="0px" y="0px"
	 viewBox="0 0 1130.6 250" style="enable-background:new 0 0 1130.6 250;" xml:space="preserve">
<style type="text/css">
	.st0{fill:#00AEF1;}
	.st1{fill:#324956;}
</style>
<title>logosol01</title>
<polyline class="st0" points="98,127.8 162.3,63.5 223.8,125 125,223.8 125,223.7 111.8,236.9 125,250 250,125 162.2,37.2 
	84.9,114.7 "/>
<path class="st0" d="M151.4,122.8l-63.7,63.7L26.2,125L138.1,13.2L125,0L0,125l81.1,81.1l0,0l0,0l6.6,6.6l13.1-13.1l0,0l63.7-63.7"
	/>
<path class="st1" d="M330,90c-4.7,0-8.6,1-11.7,2.9c-3,1.9-4.8,5.2-4.6,8.8c-0.2,3.6,1.6,7,4.6,9c3,2.1,9.5,4.3,19.5,6.7
	c9.9,2.4,17.4,5.8,22.4,10.1c5,4.3,7.5,10.7,7.5,19.2c0.2,8-3.3,15.6-9.5,20.6c-6.4,5.3-14.7,7.9-25.1,7.9
	c-15.1,0-28.5-5.2-40.3-15.6l10.2-12.3c9.8,8.5,19.9,12.7,30.4,12.7c5.3,0,9.4-1.1,12.5-3.4c3-2,4.7-5.4,4.6-9
	c0.1-3.5-1.5-6.7-4.4-8.7c-2.9-2.1-7.9-4-15-5.7c-5.5-1.2-10.9-2.8-16.2-4.7c-3.5-1.4-6.9-3.2-9.8-5.6c-5.7-4.3-8.6-11-8.6-19.9
	s3.2-15.9,9.8-20.7c6.5-4.8,14.6-7.3,24.2-7.3c6.3,0,12.5,1,18.4,3c5.7,1.9,11.1,4.8,15.7,8.6L356,98.8c-3.4-2.9-7.3-5-11.6-6.3
	C339.8,90.9,334.9,90,330,90z"/>
<path class="st1" d="M478.4,160.6c-9.8,9.6-21.9,14.3-36.2,14.3c-14.4,0-26.5-4.8-36.3-14.3c-9.8-9.5-14.7-21.4-14.7-35.7
	c0-14.3,4.9-26.2,14.7-35.7c9.8-9.5,21.9-14.3,36.3-14.3s26.5,4.8,36.2,14.3c9.8,9.6,14.7,21.5,14.7,35.7S488.2,151.1,478.4,160.6z
	 M466.4,100.1c-13.1-13.4-34.6-13.7-48-0.6c-0.2,0.2-0.4,0.4-0.6,0.6c-13.2,13.9-13.2,35.8,0,49.7c13.1,13.4,34.6,13.7,48,0.6
	c0.2-0.2,0.4-0.4,0.6-0.6C479.6,135.8,479.6,114,466.4,100.1z"/>
<path class="st1" d="M520.6,174V77.2h16.3v81.3h44.2l7.3,15.5L520.6,174z"/>
<path class="st1" d="M646.8,174h-18.2l-38.9-96.8h18.3l29.8,72.3l29.8-72.2h18.3L646.8,174z"/>
<path class="st1" d="M779.6,77.2v15.4h-51.6v25.6h46.4v14.5h-46.4v25.9h53.3V174h-69.6V77.2H779.6z"/>
<path class="st1" d="M886.7,77.2H903V174h-17.7l-54.8-70.6V174h-16.3V77.2h16.3l56.2,72.3V77.2z"/>
<path class="st1" d="M978.4,92.2V174h-16.3V92.2h-29.3v-15h75v15H978.4z"/>
<path class="st1" d="M1115.9,160.6c-9.8,9.6-21.9,14.3-36.2,14.3c-14.4,0-26.5-4.8-36.3-14.3c-9.8-9.5-14.7-21.4-14.7-35.7
	s4.9-26.2,14.7-35.7s21.9-14.3,36.3-14.3c14.4,0,26.5,4.8,36.2,14.3c9.8,9.6,14.7,21.5,14.7,35.7S1125.7,151.1,1115.9,160.6z
	 M1103.9,100.1c-13.1-13.4-34.6-13.7-48-0.6c-0.2,0.2-0.4,0.4-0.6,0.6c-13.2,13.9-13.2,35.8,0,49.7c13.1,13.4,34.6,13.7,48,0.6
	c0.2-0.2,0.4-0.4,0.6-0.6C1117.1,135.8,1117.1,114,1103.9,100.1z"/>
</svg>
